<svg xmlns="http://www.w3.org/2000/svg" viewBox="0 0 860 520">
  <g stroke="#111827" fill="none" stroke-linecap="round" stroke-linejoin="round">
    <!-- Ground -->
    <path data-id="ground" data-name="אדמה" stroke-width="4" d="M40 420 L820 420 L820 500 L40 500 Z"/>

    <!-- Courtyard fence -->
    <path data-id="fence-left" data-name="גדר החצר שמאל" stroke-width="4" d="M60 380 L300 380 L300 420 L60 420 Z"/>
    <path data-id="fence-right" data-name="גדר החצר ימין" stroke-width="4" d="M560 380 L800 380 L800 420 L560 420 Z"/>

    <!-- Courtyard gate curtain -->
    <path data-id="gate-curtain" data-name="שער החצר" stroke-width="4" d="M300 372 L560 372 L560 420 L300 420 Z"/>
    <path data-id="gate-strip-left" data-name="פס בשער שמאל" stroke-width="4" d="M318 372 L350 372 L350 420 L318 420 Z"/>
    <path data-id="gate-strip-right" data-name="פס בשער ימין" stroke-width="4" d="M510 372 L542 372 L542 420 L510 420 Z"/>

    <!-- Mishkan base -->
    <path data-id="base" data-name="בסיס המשכן" stroke-width="4" d="M250 360 L610 360 L610 420 L250 420 Z"/>

    <!-- Mishkan walls -->
    <path data-id="wall-left" data-name="קיר המשכן שמאל" stroke-width="4" d="M270 210 L420 210 L420 360 L270 360 Z"/>
    <path data-id="wall-right" data-name="קיר המשכן ימין" stroke-width="4" d="M440 210 L590 210 L590 360 L440 360 Z"/>

    <!-- Roof -->
    <path data-id="roof" data-name="גג המשכן" stroke-width="4" d="M255 210 L430 120 L605 210 L255 210 Z"/>

    <!-- Entrance -->
    <path data-id="entrance-frame" data-name="מסגרת הכניסה" stroke-width="4" d="M395 245 L465 245 L465 360 L395 360 Z"/>
    <path data-id="entrance-curtain" data-name="פרוכת/מסך כניסה" stroke-width="4" d="M402 252 L458 252 L458 360 L402 360 Z"/>

    <!-- Poles -->
    <path data-id="pole-left" data-name="עמוד שמאל" stroke-width="4" d="M382 232 L398 232 L398 360 L382 360 Z"/>
    <path data-id="pole-right" data-name="עמוד ימין" stroke-width="4" d="M462 232 L478 232 L478 360 L462 360 Z"/>
    <path data-id="pole-base-left" data-name="בסיס עמוד שמאל" stroke-width="4" d="M376 360 L404 360 L404 384 L376 384 Z"/>
    <path data-id="pole-base-right" data-name="בסיס עמוד ימין" stroke-width="4" d="M456 360 L484 360 L484 384 L456 384 Z"/>

    <!-- Cloud covering the Mishkan (simple, large regions) -->
    <path data-id="cloud-1" data-name="ענן 1" stroke-width="4" d="M210 170
      C190 165, 185 140, 205 130
      C215 110, 245 105, 260 120
      C275 105, 310 110, 320 130
      C345 128, 360 150, 345 168
      C335 188, 305 194, 290 182
      C275 198, 235 198, 225 180
      C220 176, 215 172, 210 170 Z"/>
    <path data-id="cloud-2" data-name="ענן 2" stroke-width="4" d="M330 140
      C315 128, 320 110, 338 105
      C352 88, 380 86, 394 104
      C410 90, 440 95, 448 114
      C472 112, 488 132, 476 150
      C468 166, 442 170, 430 160
      C418 176, 385 178, 372 162
      C360 168, 340 160, 330 140 Z"/>
    <path data-id="cloud-3" data-name="ענן 3" stroke-width="4" d="M470 150
      C458 135, 468 118, 486 114
      C500 96, 528 98, 540 116
      C558 102, 588 110, 592 130
      C614 132, 626 154, 612 170
      C604 186, 578 190, 566 178
      C552 196, 518 196, 504 178
      C492 186, 476 176, 470 150 Z"/>
    <path data-id="cloud-4" data-name="ענן 4" stroke-width="4" d="M270 230
      C248 228, 236 206, 248 188
      C255 170, 282 164, 296 176
      C312 160, 342 164, 350 184
      C374 182, 388 204, 374 222
      C366 238, 338 244, 324 232
      C312 246, 286 246, 270 230 Z"/>
    <path data-id="cloud-5" data-name="ענן 5" stroke-width="4" d="M450 232
      C430 230, 416 210, 428 192
      C436 174, 464 168, 478 182
      C494 164, 526 170, 534 190
      C558 190, 572 212, 556 228
      C548 244, 520 250, 506 236
      C492 250, 466 248, 450 232 Z"/>
  </g>
</svg>
