<svg xmlns="http://www.w3.org/2000/svg" viewBox="0 0 860 520">
  <!-- Decorative (non-coloring) lines -->
  <g stroke="#111827" fill="none" stroke-linecap="round" stroke-linejoin="round" stroke-width="2.8">
    <!-- Robe outer -->
    <path d="M250 110
             C285 85, 335 80, 380 90
             L480 90
             C525 80, 575 85, 610 110
             L670 175
             C686 195, 684 220, 664 235
             L610 200
             L610 430
             C610 458, 588 480, 560 480
             L300 480
             C272 480, 250 458, 250 430
             L250 200
             L196 235
             C176 220, 174 195, 190 175
             Z"/>
    <!-- Fold lines -->
    <path d="M305 160 C320 220, 320 300, 305 420"/>
    <path d="M430 150 C430 235, 430 330, 430 450"/>
    <path d="M555 160 C540 220, 540 300, 555 420"/>
    <!-- Belt guide -->
    <path d="M270 320 C360 300, 500 300, 590 320"/>
    <!-- Breastplate outer -->
    <rect x="300" y="110" width="260" height="260" rx="18"/>
    <rect x="314" y="124" width="232" height="232" rx="14"/>
    <!-- Stitch marks (decorative) -->
    <path d="M320 120 L540 120"/>
    <path d="M320 360 L540 360"/>
    <path d="M300 250 L560 250"/>
    <!-- Stone facet guides (decorative) -->
    <path d="M325 135 L375 185"/>
    <path d="M380 185 L430 135"/>
    <path d="M435 135 L485 185"/>
    <path d="M490 185 L540 135"/>
    <path d="M325 240 L375 190"/>
    <path d="M380 190 L430 240"/>
    <path d="M435 240 L485 190"/>
    <path d="M490 190 L540 240"/>
    <path d="M325 245 L375 295"/>
    <path d="M380 295 L430 245"/>
    <path d="M435 245 L485 295"/>
    <path d="M490 295 L540 245"/>
  </g>

  <!-- Coloring regions -->
  <g stroke="#111827" fill="none" stroke-linecap="round" stroke-linejoin="round" stroke-width="2.8">
    <!-- Robe panels -->
    <path data-id="robe-left" data-name="גלימה שמאל"
          d="M250 110 L190 175
             C174 195, 176 220, 196 235
             L250 200 L250 430
             C250 458, 272 480, 300 480
             L390 480 L390 120
             C350 110, 305 110, 250 110 Z"/>
    <path data-id="robe-center" data-name="גלימה אמצע"
          d="M390 120
             C410 115, 450 115, 470 120
             L470 480 L390 480 Z"/>
    <path data-id="robe-right" data-name="גלימה ימין"
          d="M470 120 L470 480 L560 480
             C588 480, 610 458, 610 430
             L610 200 L664 235
             C684 220, 686 195, 670 175
             L610 110
             C555 110, 510 110, 470 120 Z"/>

    <!-- Belt parts -->
    <path data-id="belt-left" data-name="אבנט שמאל"
          d="M270 300
             C330 286, 380 282, 430 282
             L430 358
             C380 358, 330 354, 270 340
             Z"/>
    <path data-id="belt-center" data-name="אבנט אמצע"
          d="M430 282
             C460 282, 500 286, 530 292
             L530 348
             C500 354, 460 358, 430 358
             Z"/>
    <path data-id="belt-right" data-name="אבנט ימין"
          d="M530 292
             C552 296, 572 300, 590 304
             L590 336
             C572 340, 552 344, 530 348
             Z"/>

    <rect data-id="buckle" data-name="אבזם" x="422" y="305" width="36" height="30" rx="6"/>

    <!-- Straps + stitch regions -->
    <path data-id="strap-left" data-name="רצועה שמאלית"
          d="M340 130
             C330 170, 330 220, 342 255
             C354 290, 370 305, 390 305
             C400 305, 406 296, 404 286
             C396 245, 398 175, 410 132
             C412 122, 406 114, 395 114
             C370 114, 350 118, 340 130
             Z"/>
    <path data-id="strap-left-stitch" data-name="תפר רצועה שמאל"
          d="M365 128
             C356 170, 356 220, 366 255
             C374 282, 382 292, 392 292
             C394 292, 395 290, 395 286
             C388 245, 390 175, 398 130 Z"/>

    <path data-id="strap-right" data-name="רצועה ימנית"
          d="M520 130
             C530 170, 530 220, 518 255
             C506 290, 490 305, 470 305
             C460 305, 454 296, 456 286
             C464 245, 462 175, 450 132
             C448 122, 454 114, 465 114
             C490 114, 510 118, 520 130
             Z"/>
    <path data-id="strap-right-stitch" data-name="תפר רצועה ימין"
          d="M495 128
             C504 170, 504 220, 494 255
             C486 282, 478 292, 468 292
             C466 292, 465 290, 465 286
             C472 245, 470 175, 462 130 Z"/>

    <!-- Breastplate frame split -->
    <rect data-id="bp-frame-outer" data-name="מסגרת חיצונית" x="300" y="110" width="260" height="260" rx="18"/>
    <rect data-id="bp-frame-inner" data-name="מסגרת פנימית" x="314" y="124" width="232" height="232" rx="14"/>

    <!-- Stones (each split to 2 facets) -->
    <!-- Stone 01 (used for inspirations) -->
    <path data-id="stone01-a" data-name="אבן 1 חלק א" d="M325 135 L375 135 L375 185 Z"/>
    <path data-id="stone01-b" data-name="אבן 1 חלק ב" d="M325 135 L375 185 L325 185 Z"/>

    <path data-id="stone02-a" data-name="אבן 2 חלק א" d="M380 135 L430 135 L430 185 Z"/>
    <path data-id="stone02-b" data-name="אבן 2 חלק ב" d="M380 135 L430 185 L380 185 Z"/>

    <path data-id="stone03-a" data-name="אבן 3 חלק א" d="M435 135 L485 135 L485 185 Z"/>
    <path data-id="stone03-b" data-name="אבן 3 חלק ב" d="M435 135 L485 185 L435 185 Z"/>

    <path data-id="stone04-a" data-name="אבן 4 חלק א" d="M490 135 L540 135 L540 185 Z"/>
    <path data-id="stone04-b" data-name="אבן 4 חלק ב" d="M490 135 L540 185 L490 185 Z"/>

    <path data-id="stone05-a" data-name="אבן 5 חלק א" d="M325 190 L375 190 L375 240 Z"/>
    <path data-id="stone05-b" data-name="אבן 5 חלק ב" d="M325 190 L375 240 L325 240 Z"/>

    <path data-id="stone06-a" data-name="אבן 6 חלק א" d="M380 190 L430 190 L430 240 Z"/>
    <path data-id="stone06-b" data-name="אבן 6 חלק ב" d="M380 190 L430 240 L380 240 Z"/>

    <path data-id="stone07-a" data-name="אבן 7 חלק א" d="M435 190 L485 190 L485 240 Z"/>
    <path data-id="stone07-b" data-name="אבן 7 חלק ב" d="M435 190 L485 240 L435 240 Z"/>

    <path data-id="stone08-a" data-name="אבן 8 חלק א" d="M490 190 L540 190 L540 240 Z"/>
    <path data-id="stone08-b" data-name="אבן 8 חלק ב" d="M490 190 L540 240 L490 240 Z"/>

    <path data-id="stone09-a" data-name="אבן 9 חלק א" d="M325 245 L375 245 L375 295 Z"/>
    <path data-id="stone09-b" data-name="אבן 9 חלק ב" d="M325 245 L375 295 L325 295 Z"/>

    <path data-id="stone10-a" data-name="אבן 10 חלק א" d="M380 245 L430 245 L430 295 Z"/>
    <path data-id="stone10-b" data-name="אבן 10 חלק ב" d="M380 245 L430 295 L380 295 Z"/>

    <path data-id="stone11-a" data-name="אבן 11 חלק א" d="M435 245 L485 245 L485 295 Z"/>
    <path data-id="stone11-b" data-name="אבן 11 חלק ב" d="M435 245 L485 295 L435 295 Z"/>

    <path data-id="stone12-a" data-name="אבן 12 חלק א" d="M490 245 L540 245 L540 295 Z"/>
    <path data-id="stone12-b" data-name="אבן 12 חלק ב" d="M490 245 L540 295 L490 295 Z"/>
  </g>
</svg>
