<svg xmlns="http://www.w3.org/2000/svg" viewBox="0 0 860 520">
  <g stroke="#111827" fill="none" stroke-linecap="round" stroke-linejoin="round" stroke-width="4">
    <!-- Robe -->
    <path data-id="robe" data-name="גלימת הכהן"
          d="M250 110
             C285 85, 335 80, 380 90
             L480 90
             C525 80, 575 85, 610 110
             L670 175
             C686 195, 684 220, 664 235
             L610 200
             L610 430
             C610 458, 588 480, 560 480
             L300 480
             C272 480, 250 458, 250 430
             L250 200
             L196 235
             C176 220, 174 195, 190 175
             Z"/>

    <!-- Belt -->
    <path data-id="belt" data-name="אבנט"
          d="M270 300
             C360 280, 500 280, 590 300
             L590 340
             C500 360, 360 360, 270 340
             Z"/>

    <!-- Straps -->
    <path data-id="strap-left" data-name="רצועה שמאלית"
          d="M340 130
             C330 170, 330 220, 342 255
             C354 290, 370 305, 390 305
             C400 305, 406 296, 404 286
             C396 245, 398 175, 410 132
             C412 122, 406 114, 395 114
             C370 114, 350 118, 340 130
             Z"/>
    <path data-id="strap-right" data-name="רצועה ימנית"
          d="M520 130
             C530 170, 530 220, 518 255
             C506 290, 490 305, 470 305
             C460 305, 454 296, 456 286
             C464 245, 462 175, 450 132
             C448 122, 454 114, 465 114
             C490 114, 510 118, 520 130
             Z"/>

    <!-- Breastplate frame -->
    <rect data-id="bp-frame" data-name="מסגרת החושן"
          x="300" y="110" width="260" height="260" rx="18"/>

    <!-- Stones (3 rows x 4 cols) -->
    <rect data-id="stone-01" data-name="אבן 1" x="325" y="135" width="50" height="50" rx="10"/>
    <rect data-id="stone-02" data-name="אבן 2" x="380" y="135" width="50" height="50" rx="10"/>
    <rect data-id="stone-03" data-name="אבן 3" x="435" y="135" width="50" height="50" rx="10"/>
    <rect data-id="stone-04" data-name="אבן 4" x="490" y="135" width="50" height="50" rx="10"/>

    <rect data-id="stone-05" data-name="אבן 5" x="325" y="190" width="50" height="50" rx="10"/>
    <rect data-id="stone-06" data-name="אבן 6" x="380" y="190" width="50" height="50" rx="10"/>
    <rect data-id="stone-07" data-name="אבן 7" x="435" y="190" width="50" height="50" rx="10"/>
    <rect data-id="stone-08" data-name="אבן 8" x="490" y="190" width="50" height="50" rx="10"/>

    <rect data-id="stone-09" data-name="אבן 9" x="325" y="245" width="50" height="50" rx="10"/>
    <rect data-id="stone-10" data-name="אבן 10" x="380" y="245" width="50" height="50" rx="10"/>
    <rect data-id="stone-11" data-name="אבן 11" x="435" y="245" width="50" height="50" rx="10"/>
    <rect data-id="stone-12" data-name="אבן 12" x="490" y="245" width="50" height="50" rx="10"/>
  </g>
</svg>
