<svg xmlns="http://www.w3.org/2000/svg" viewBox="0 0 860 520" width="860" height="520">
  <g>
  <rect fill="none" stroke="#111827" stroke-width="3" stroke-linecap="round" stroke-linejoin="round" data-id="l_strap" data-name="רצועה שמאל" x="260.0" y="80.0" width="120" height="70" rx="18" ry="18"/>
  <rect fill="none" stroke="#111827" stroke-width="3" stroke-linecap="round" stroke-linejoin="round" data-id="r_strap" data-name="רצועה ימין" x="480.0" y="80.0" width="120" height="70" rx="18" ry="18"/>
  <path fill="none" stroke="#111827" stroke-width="3" stroke-linecap="round" stroke-linejoin="round" data-id="chain_left" data-name="שרשרת שמאל" d="M 350.0,150.0 C 310.0,205.0 315.0,190.0 275.0,135.0"/>
  <path fill="none" stroke="#111827" stroke-width="3" stroke-linecap="round" stroke-linejoin="round" data-id="chain_right" data-name="שרשרת ימין" d="M 510.0,150.0 C 550.0,205.0 545.0,190.0 585.0,135.0"/>
  <circle fill="none" stroke="#111827" stroke-width="3" stroke-linecap="round" stroke-linejoin="round" data-id="ring_left" data-name="טבעת שמאל" cx="275.0" cy="135.0" r="12"/>
  <circle fill="none" stroke="#111827" stroke-width="3" stroke-linecap="round" stroke-linejoin="round" data-id="ring_right" data-name="טבעת ימין" cx="585.0" cy="135.0" r="12"/>
  <rect fill="none" stroke="#111827" stroke-width="3" stroke-linecap="round" stroke-linejoin="round" data-id="frame_outer" data-name="מסגרת חיצונית" x="220.0" y="125.0" width="420" height="320" rx="28" ry="28"/>
  <rect fill="none" stroke="#111827" stroke-width="3" stroke-linecap="round" stroke-linejoin="round" data-id="panel_inner" data-name="לוח פנימי" x="246.0" y="151.0" width="368" height="268" rx="20" ry="20"/>
  <rect fill="none" stroke="#111827" stroke-width="3" stroke-linecap="round" stroke-linejoin="round" data-id="stone_1" data-name="אבן 1" x="264.0" y="169.0" width="98.66666666666667" height="44.5" rx="14" ry="14"/>
  <rect fill="none" stroke="#111827" stroke-width="3" stroke-linecap="round" stroke-linejoin="round" data-id="bezel_1" data-name="שיבוץ אבן 1" x="271.0" y="176.0" width="84.66666666666667" height="30.5" rx="11" ry="11"/>
  <polygon fill="none" stroke="#111827" stroke-width="3" stroke-linecap="round" stroke-linejoin="round" data-id="facetA_1" data-name="אבן 1 – פאה א" points="280.0,185.0 346.6666666666667,185.0 280.0,197.5"/>
  <polygon fill="none" stroke="#111827" stroke-width="3" stroke-linecap="round" stroke-linejoin="round" data-id="facetB_1" data-name="אבן 1 – פאה ב" points="346.6666666666667,185.0 346.6666666666667,197.5 280.0,197.5"/>
  <rect fill="none" stroke="#111827" stroke-width="3" stroke-linecap="round" stroke-linejoin="round" data-id="stone_2" data-name="אבן 2" x="380.6666666666667" y="169.0" width="98.66666666666667" height="44.5" rx="14" ry="14"/>
  <rect fill="none" stroke="#111827" stroke-width="3" stroke-linecap="round" stroke-linejoin="round" data-id="bezel_2" data-name="שיבוץ אבן 2" x="387.6666666666667" y="176.0" width="84.66666666666667" height="30.5" rx="11" ry="11"/>
  <polygon fill="none" stroke="#111827" stroke-width="3" stroke-linecap="round" stroke-linejoin="round" data-id="facetA_2" data-name="אבן 2 – פאה א" points="396.6666666666667,185.0 463.33333333333337,185.0 396.6666666666667,197.5"/>
  <polygon fill="none" stroke="#111827" stroke-width="3" stroke-linecap="round" stroke-linejoin="round" data-id="facetB_2" data-name="אבן 2 – פאה ב" points="463.33333333333337,185.0 463.33333333333337,197.5 396.6666666666667,197.5"/>
  <rect fill="none" stroke="#111827" stroke-width="3" stroke-linecap="round" stroke-linejoin="round" data-id="stone_3" data-name="אבן 3" x="497.33333333333337" y="169.0" width="98.66666666666667" height="44.5" rx="14" ry="14"/>
  <rect fill="none" stroke="#111827" stroke-width="3" stroke-linecap="round" stroke-linejoin="round" data-id="bezel_3" data-name="שיבוץ אבן 3" x="504.33333333333337" y="176.0" width="84.66666666666667" height="30.5" rx="11" ry="11"/>
  <polygon fill="none" stroke="#111827" stroke-width="3" stroke-linecap="round" stroke-linejoin="round" data-id="facetA_3" data-name="אבן 3 – פאה א" points="513.3333333333334,185.0 580.0,185.0 513.3333333333334,197.5"/>
  <polygon fill="none" stroke="#111827" stroke-width="3" stroke-linecap="round" stroke-linejoin="round" data-id="facetB_3" data-name="אבן 3 – פאה ב" points="580.0,185.0 580.0,197.5 513.3333333333334,197.5"/>
  <rect fill="none" stroke="#111827" stroke-width="3" stroke-linecap="round" stroke-linejoin="round" data-id="stone_4" data-name="אבן 4" x="264.0" y="231.5" width="98.66666666666667" height="44.5" rx="14" ry="14"/>
  <rect fill="none" stroke="#111827" stroke-width="3" stroke-linecap="round" stroke-linejoin="round" data-id="bezel_4" data-name="שיבוץ אבן 4" x="271.0" y="238.5" width="84.66666666666667" height="30.5" rx="11" ry="11"/>
  <polygon fill="none" stroke="#111827" stroke-width="3" stroke-linecap="round" stroke-linejoin="round" data-id="facetA_4" data-name="אבן 4 – פאה א" points="280.0,247.5 346.6666666666667,247.5 280.0,260.0"/>
  <polygon fill="none" stroke="#111827" stroke-width="3" stroke-linecap="round" stroke-linejoin="round" data-id="facetB_4" data-name="אבן 4 – פאה ב" points="346.6666666666667,247.5 346.6666666666667,260.0 280.0,260.0"/>
  <rect fill="none" stroke="#111827" stroke-width="3" stroke-linecap="round" stroke-linejoin="round" data-id="stone_5" data-name="אבן 5" x="380.6666666666667" y="231.5" width="98.66666666666667" height="44.5" rx="14" ry="14"/>
  <rect fill="none" stroke="#111827" stroke-width="3" stroke-linecap="round" stroke-linejoin="round" data-id="bezel_5" data-name="שיבוץ אבן 5" x="387.6666666666667" y="238.5" width="84.66666666666667" height="30.5" rx="11" ry="11"/>
  <polygon fill="none" stroke="#111827" stroke-width="3" stroke-linecap="round" stroke-linejoin="round" data-id="facetA_5" data-name="אבן 5 – פאה א" points="396.6666666666667,247.5 463.33333333333337,247.5 396.6666666666667,260.0"/>
  <polygon fill="none" stroke="#111827" stroke-width="3" stroke-linecap="round" stroke-linejoin="round" data-id="facetB_5" data-name="אבן 5 – פאה ב" points="463.33333333333337,247.5 463.33333333333337,260.0 396.6666666666667,260.0"/>
  <rect fill="none" stroke="#111827" stroke-width="3" stroke-linecap="round" stroke-linejoin="round" data-id="stone_6" data-name="אבן 6" x="497.33333333333337" y="231.5" width="98.66666666666667" height="44.5" rx="14" ry="14"/>
  <rect fill="none" stroke="#111827" stroke-width="3" stroke-linecap="round" stroke-linejoin="round" data-id="bezel_6" data-name="שיבוץ אבן 6" x="504.33333333333337" y="238.5" width="84.66666666666667" height="30.5" rx="11" ry="11"/>
  <polygon fill="none" stroke="#111827" stroke-width="3" stroke-linecap="round" stroke-linejoin="round" data-id="facetA_6" data-name="אבן 6 – פאה א" points="513.3333333333334,247.5 580.0,247.5 513.3333333333334,260.0"/>
  <polygon fill="none" stroke="#111827" stroke-width="3" stroke-linecap="round" stroke-linejoin="round" data-id="facetB_6" data-name="אבן 6 – פאה ב" points="580.0,247.5 580.0,260.0 513.3333333333334,260.0"/>
  <rect fill="none" stroke="#111827" stroke-width="3" stroke-linecap="round" stroke-linejoin="round" data-id="stone_7" data-name="אבן 7" x="264.0" y="294.0" width="98.66666666666667" height="44.5" rx="14" ry="14"/>
  <rect fill="none" stroke="#111827" stroke-width="3" stroke-linecap="round" stroke-linejoin="round" data-id="bezel_7" data-name="שיבוץ אבן 7" x="271.0" y="301.0" width="84.66666666666667" height="30.5" rx="11" ry="11"/>
  <polygon fill="none" stroke="#111827" stroke-width="3" stroke-linecap="round" stroke-linejoin="round" data-id="facetA_7" data-name="אבן 7 – פאה א" points="280.0,310.0 346.6666666666667,310.0 280.0,322.5"/>
  <polygon fill="none" stroke="#111827" stroke-width="3" stroke-linecap="round" stroke-linejoin="round" data-id="facetB_7" data-name="אבן 7 – פאה ב" points="346.6666666666667,310.0 346.6666666666667,322.5 280.0,322.5"/>
  <rect fill="none" stroke="#111827" stroke-width="3" stroke-linecap="round" stroke-linejoin="round" data-id="stone_8" data-name="אבן 8" x="380.6666666666667" y="294.0" width="98.66666666666667" height="44.5" rx="14" ry="14"/>
  <rect fill="none" stroke="#111827" stroke-width="3" stroke-linecap="round" stroke-linejoin="round" data-id="bezel_8" data-name="שיבוץ אבן 8" x="387.6666666666667" y="301.0" width="84.66666666666667" height="30.5" rx="11" ry="11"/>
  <polygon fill="none" stroke="#111827" stroke-width="3" stroke-linecap="round" stroke-linejoin="round" data-id="facetA_8" data-name="אבן 8 – פאה א" points="396.6666666666667,310.0 463.33333333333337,310.0 396.6666666666667,322.5"/>
  <polygon fill="none" stroke="#111827" stroke-width="3" stroke-linecap="round" stroke-linejoin="round" data-id="facetB_8" data-name="אבן 8 – פאה ב" points="463.33333333333337,310.0 463.33333333333337,322.5 396.6666666666667,322.5"/>
  <rect fill="none" stroke="#111827" stroke-width="3" stroke-linecap="round" stroke-linejoin="round" data-id="stone_9" data-name="אבן 9" x="497.33333333333337" y="294.0" width="98.66666666666667" height="44.5" rx="14" ry="14"/>
  <rect fill="none" stroke="#111827" stroke-width="3" stroke-linecap="round" stroke-linejoin="round" data-id="bezel_9" data-name="שיבוץ אבן 9" x="504.33333333333337" y="301.0" width="84.66666666666667" height="30.5" rx="11" ry="11"/>
  <polygon fill="none" stroke="#111827" stroke-width="3" stroke-linecap="round" stroke-linejoin="round" data-id="facetA_9" data-name="אבן 9 – פאה א" points="513.3333333333334,310.0 580.0,310.0 513.3333333333334,322.5"/>
  <polygon fill="none" stroke="#111827" stroke-width="3" stroke-linecap="round" stroke-linejoin="round" data-id="facetB_9" data-name="אבן 9 – פאה ב" points="580.0,310.0 580.0,322.5 513.3333333333334,322.5"/>
  <rect fill="none" stroke="#111827" stroke-width="3" stroke-linecap="round" stroke-linejoin="round" data-id="stone_10" data-name="אבן 10" x="264.0" y="356.5" width="98.66666666666667" height="44.5" rx="14" ry="14"/>
  <rect fill="none" stroke="#111827" stroke-width="3" stroke-linecap="round" stroke-linejoin="round" data-id="bezel_10" data-name="שיבוץ אבן 10" x="271.0" y="363.5" width="84.66666666666667" height="30.5" rx="11" ry="11"/>
  <polygon fill="none" stroke="#111827" stroke-width="3" stroke-linecap="round" stroke-linejoin="round" data-id="facetA_10" data-name="אבן 10 – פאה א" points="280.0,372.5 346.6666666666667,372.5 280.0,385.0"/>
  <polygon fill="none" stroke="#111827" stroke-width="3" stroke-linecap="round" stroke-linejoin="round" data-id="facetB_10" data-name="אבן 10 – פאה ב" points="346.6666666666667,372.5 346.6666666666667,385.0 280.0,385.0"/>
  <rect fill="none" stroke="#111827" stroke-width="3" stroke-linecap="round" stroke-linejoin="round" data-id="stone_11" data-name="אבן 11" x="380.6666666666667" y="356.5" width="98.66666666666667" height="44.5" rx="14" ry="14"/>
  <rect fill="none" stroke="#111827" stroke-width="3" stroke-linecap="round" stroke-linejoin="round" data-id="bezel_11" data-name="שיבוץ אבן 11" x="387.6666666666667" y="363.5" width="84.66666666666667" height="30.5" rx="11" ry="11"/>
  <polygon fill="none" stroke="#111827" stroke-width="3" stroke-linecap="round" stroke-linejoin="round" data-id="facetA_11" data-name="אבן 11 – פאה א" points="396.6666666666667,372.5 463.33333333333337,372.5 396.6666666666667,385.0"/>
  <polygon fill="none" stroke="#111827" stroke-width="3" stroke-linecap="round" stroke-linejoin="round" data-id="facetB_11" data-name="אבן 11 – פאה ב" points="463.33333333333337,372.5 463.33333333333337,385.0 396.6666666666667,385.0"/>
  <rect fill="none" stroke="#111827" stroke-width="3" stroke-linecap="round" stroke-linejoin="round" data-id="stone_12" data-name="אבן 12" x="497.33333333333337" y="356.5" width="98.66666666666667" height="44.5" rx="14" ry="14"/>
  <rect fill="none" stroke="#111827" stroke-width="3" stroke-linecap="round" stroke-linejoin="round" data-id="bezel_12" data-name="שיבוץ אבן 12" x="504.33333333333337" y="363.5" width="84.66666666666667" height="30.5" rx="11" ry="11"/>
  <polygon fill="none" stroke="#111827" stroke-width="3" stroke-linecap="round" stroke-linejoin="round" data-id="facetA_12" data-name="אבן 12 – פאה א" points="513.3333333333334,372.5 580.0,372.5 513.3333333333334,385.0"/>
  <polygon fill="none" stroke="#111827" stroke-width="3" stroke-linecap="round" stroke-linejoin="round" data-id="facetB_12" data-name="אבן 12 – פאה ב" points="580.0,372.5 580.0,385.0 513.3333333333334,385.0"/>
  <path fill="none" stroke="#111827" stroke-width="3" stroke-linecap="round" stroke-linejoin="round" data-id="cord_1" data-name="פתיל שמאל" d="M 310,440.0 C 300,465.0 320,485.0 310,515.0"/>
  <circle fill="none" stroke="#111827" stroke-width="3" stroke-linecap="round" stroke-linejoin="round" data-id="knot_1" data-name="קשר שמאל" cx="310" cy="470.0" r="10"/>
  <path fill="none" stroke="#111827" stroke-width="3" stroke-linecap="round" stroke-linejoin="round" data-id="tassel_1_1" data-name="ציצית פתיל שמאל 1" d="M 302,510.0 C 296,527.0 308,537.0 302,550.0"/>
  <path fill="none" stroke="#111827" stroke-width="3" stroke-linecap="round" stroke-linejoin="round" data-id="tassel_1_2" data-name="ציצית פתיל שמאל 2" d="M 310,510.0 C 304,527.0 316,537.0 310,550.0"/>
  <path fill="none" stroke="#111827" stroke-width="3" stroke-linecap="round" stroke-linejoin="round" data-id="tassel_1_3" data-name="ציצית פתיל שמאל 3" d="M 318,510.0 C 312,527.0 324,537.0 318,550.0"/>
  <path fill="none" stroke="#111827" stroke-width="3" stroke-linecap="round" stroke-linejoin="round" data-id="cord_2" data-name="פתיל ימין" d="M 550,440.0 C 540,465.0 560,485.0 550,515.0"/>
  <circle fill="none" stroke="#111827" stroke-width="3" stroke-linecap="round" stroke-linejoin="round" data-id="knot_2" data-name="קשר ימין" cx="550" cy="470.0" r="10"/>
  <path fill="none" stroke="#111827" stroke-width="3" stroke-linecap="round" stroke-linejoin="round" data-id="tassel_2_1" data-name="ציצית פתיל ימין 1" d="M 542,510.0 C 536,527.0 548,537.0 542,550.0"/>
  <path fill="none" stroke="#111827" stroke-width="3" stroke-linecap="round" stroke-linejoin="round" data-id="tassel_2_2" data-name="ציצית פתיל ימין 2" d="M 550,510.0 C 544,527.0 556,537.0 550,550.0"/>
  <path fill="none" stroke="#111827" stroke-width="3" stroke-linecap="round" stroke-linejoin="round" data-id="tassel_2_3" data-name="ציצית פתיל ימין 3" d="M 558,510.0 C 552,527.0 564,537.0 558,550.0"/>
  <rect fill="none" stroke="#111827" stroke-width="3" stroke-linecap="round" stroke-linejoin="round" data-id="corner_tl" data-name="פינת מסגרת שמאל עליון" x="230.0" y="135.0" width="62" height="46" rx="10" ry="10"/>
  <rect fill="none" stroke="#111827" stroke-width="3" stroke-linecap="round" stroke-linejoin="round" data-id="corner_tr" data-name="פינת מסגרת ימין עליון" x="568.0" y="135.0" width="62" height="46" rx="10" ry="10"/>
  <rect fill="none" stroke="#111827" stroke-width="3" stroke-linecap="round" stroke-linejoin="round" data-id="corner_bl" data-name="פינת מסגרת שמאל תחתון" x="230.0" y="389.0" width="62" height="46" rx="10" ry="10"/>
  <rect fill="none" stroke="#111827" stroke-width="3" stroke-linecap="round" stroke-linejoin="round" data-id="corner_br" data-name="פינת מסגרת ימין תחתון" x="568.0" y="389.0" width="62" height="46" rx="10" ry="10"/>
  <path fill="none" stroke="#111827" stroke-width="3" stroke-linecap="round" stroke-linejoin="round" data-id="stitch_top" data-name="תפר עליון" d="M 246.0,163.0 H 614.0"/>
  <path fill="none" stroke="#111827" stroke-width="3" stroke-linecap="round" stroke-linejoin="round" data-id="stitch_bottom" data-name="תפר תחתון" d="M 246.0,407.0 H 614.0"/>
  <path fill="none" stroke="#111827" stroke-width="3" stroke-linecap="round" stroke-linejoin="round" data-id="stitch_left" data-name="תפר שמאל" d="M 258.0,151.0 V 419.0"/>
  <path fill="none" stroke="#111827" stroke-width="3" stroke-linecap="round" stroke-linejoin="round" data-id="stitch_right" data-name="תפר ימין" d="M 602.0,151.0 V 419.0"/>
  <rect fill="none" stroke="#111827" stroke-width="3" stroke-linecap="round" stroke-linejoin="round" data-id="link_L_1" data-name="חוליה שמאל 1" x="330.2857142857143" y="152.70423633508182" width="18" height="12" rx="6" ry="6"/>
  <rect fill="none" stroke="#111827" stroke-width="3" stroke-linecap="round" stroke-linejoin="round" data-id="link_L_2" data-name="חוליה שמאל 2" x="319.57142857142856" y="159.26007277598646" width="18" height="12" rx="6" ry="6"/>
  <rect fill="none" stroke="#111827" stroke-width="3" stroke-linecap="round" stroke-linejoin="round" data-id="link_L_3" data-name="חוליה שמאל 3" x="308.85714285714283" y="161.94462637597414" width="18" height="12" rx="6" ry="6"/>
  <rect fill="none" stroke="#111827" stroke-width="3" stroke-linecap="round" stroke-linejoin="round" data-id="link_L_4" data-name="חוליה שמאל 4" x="298.1428571428571" y="159.80176923311703" width="18" height="12" rx="6" ry="6"/>
  <rect fill="none" stroke="#111827" stroke-width="3" stroke-linecap="round" stroke-linejoin="round" data-id="link_L_5" data-name="חוליה שמאל 5" x="287.42857142857144" y="152.831501347415" width="18" height="12" rx="6" ry="6"/>
  <rect fill="none" stroke="#111827" stroke-width="3" stroke-linecap="round" stroke-linejoin="round" data-id="link_L_6" data-name="חוליה שמאל 6" x="276.7142857142857" y="141.9899506207961" width="18" height="12" rx="6" ry="6"/>
  <rect fill="none" stroke="#111827" stroke-width="3" stroke-linecap="round" stroke-linejoin="round" data-id="link_R_1" data-name="חוליה ימין 1" x="511.7142857142858" y="152.70423633508182" width="18" height="12" rx="6" ry="6"/>
  <rect fill="none" stroke="#111827" stroke-width="3" stroke-linecap="round" stroke-linejoin="round" data-id="link_R_2" data-name="חוליה ימין 2" x="522.4285714285714" y="159.26007277598646" width="18" height="12" rx="6" ry="6"/>
  <rect fill="none" stroke="#111827" stroke-width="3" stroke-linecap="round" stroke-linejoin="round" data-id="link_R_3" data-name="חוליה ימין 3" x="533.1428571428571" y="161.94462637597414" width="18" height="12" rx="6" ry="6"/>
  <rect fill="none" stroke="#111827" stroke-width="3" stroke-linecap="round" stroke-linejoin="round" data-id="link_R_4" data-name="חוליה ימין 4" x="543.8571428571429" y="159.80176923311703" width="18" height="12" rx="6" ry="6"/>
  <rect fill="none" stroke="#111827" stroke-width="3" stroke-linecap="round" stroke-linejoin="round" data-id="link_R_5" data-name="חוליה ימין 5" x="554.5714285714286" y="152.831501347415" width="18" height="12" rx="6" ry="6"/>
  <rect fill="none" stroke="#111827" stroke-width="3" stroke-linecap="round" stroke-linejoin="round" data-id="link_R_6" data-name="חוליה ימין 6" x="565.2857142857142" y="141.9899506207961" width="18" height="12" rx="6" ry="6"/>
  </g>
</svg>
