<svg xmlns="http://www.w3.org/2000/svg" viewBox="0 0 860 520" fill="none">
  <g stroke="#111827" stroke-width="4" stroke-linecap="round" stroke-linejoin="round">
    <path data-id="sun" data-name="שמש" d="M706 62c0-30 24-54 54-54s54 24 54 54-24 54-54 54-54-24-54-54z"/>
    <path data-id="cloud" data-name="ענן" d="M595 92c8-24 40-34 61-19 8-16 31-22 48-11 15-3 32 7 36 22 18 0 33 14 33 31 0 18-15 33-33 33H618c-23 0-42-17-42-39 0-9 3-12 19-17z"/>
    <path data-id="branch" data-name="ענף" d="M88 378c110-9 214-2 329-5 102-2 208-8 351 3 14 1 24 10 24 22 0 13-11 23-25 23H115c-28 0-50-18-50-40 0-11 9-22 23-23z"/>
    <path data-id="leaf-left" data-name="עלה שמאלי" d="M182 336c-24-32-58-42-95-29 18 35 52 53 95 50"/>
    <path data-id="leaf-right" data-name="עלה ימני" d="M709 341c26-29 61-37 95-21-16 32-50 47-95 45"/>
    <path data-id="tail" data-name="זנב" d="M233 250c-58 5-95 35-121 79 54 8 103-18 136-56"/>
    <path data-id="body" data-name="גוף" d="M256 178c70-40 179-41 255 1 46 25 71 64 67 104-5 58-62 108-165 111-87 2-161-35-183-91-18-47-4-97 26-125z"/>
    <path data-id="belly" data-name="בטן" d="M330 233c52-17 125-15 177 8 30 13 53 37 58 64-39 41-88 57-152 57-59 0-108-12-144-38 4-41 24-75 61-91z"/>
    <path data-id="wing" data-name="כנף" d="M334 194c62-19 139-11 192 23 25 16 45 39 51 64-38 28-88 40-145 39-44-1-84-11-117-30-5-34 0-72 19-96z"/>
    <path data-id="neck" data-name="צוואר" d="M542 184c22-34 59-55 101-58 37-3 72 8 97 29-18 18-37 33-57 51-27 23-55 44-94 50-24-14-39-39-47-72z"/>
    <path data-id="head" data-name="ראש" d="M610 115c44-7 89 19 104 58 12 30 7 62-13 87-27 8-57 6-85-7-27-13-47-34-58-60 2-40 21-69 52-78z"/>
    <path data-id="beak-top" data-name="מקור עליון" d="M706 169c52-7 96-1 128 17-39 15-84 21-134 20"/>
    <path data-id="beak-bottom" data-name="מקור תחתון" d="M703 191c52 1 97 8 126 24-40 5-84 2-132-7"/>
    <path data-id="eye" data-name="עין" d="M650 175c0-11 9-20 20-20s20 9 20 20-9 20-20 20-20-9-20-20z"/>
    <path data-id="crest-left" data-name="נוצה שמאלית בציצית" d="M624 101c-19-40-22-74-10-102 25 24 34 61 31 103"/>
    <path data-id="crest-mid" data-name="נוצה אמצעית בציצית" d="M655 93c-4-43 7-76 31-98 10 30 4 68-15 106"/>
    <path data-id="crest-right" data-name="נוצה ימנית בציצית" d="M683 97c13-41 37-67 67-80 0 31-17 65-50 95"/>
    <path data-id="leg-front" data-name="רגל קדמית" d="M478 344c5 30 5 55-1 78m0 0c16-5 30-5 44 0"/>
    <path data-id="leg-back" data-name="רגל אחורית" d="M413 345c1 32-4 57-13 79m0 0c15-3 30-2 45 3"/>
  </g>
</svg>