<svg xmlns="http://www.w3.org/2000/svg" viewBox="0 0 860 520" role="img" aria-label="שני המרגלים נושאים אשכול ענבים - רמת מתחיל" stroke="#111827" stroke-width="5" stroke-linecap="round" stroke-linejoin="round">
  <path data-id="ground" data-name="שביל" d="M70 448 C190 430 315 444 430 432 C560 420 672 436 790 418 L790 486 L70 486 Z" fill="none" stroke="#111827"/>
  <path data-id="pole" data-name="המוט" d="M195 171 C321 154 480 150 645 170 C647 174 646 179 642 182 C478 162 322 166 198 179 C194 178 193 174 195 171 Z" fill="none" stroke="#111827"/>

  <circle data-id="left-head" data-name="ראש המרגל השמאלי" cx="198" cy="110" r="31" fill="none" stroke="#111827"/>
  <path data-id="left-body" data-name="בגד המרגל השמאלי" d="M164 151 L232 151 C254 208 247 300 218 360 L180 360 C151 300 145 209 164 151 Z" fill="none" stroke="#111827"/>
  <path data-id="left-arm" data-name="יד המרגל השמאלי" d="M229 170 C260 165 277 161 302 160 C311 164 313 176 305 184 C276 184 253 187 232 196 Z" fill="none" stroke="#111827"/>
  <path data-id="left-legs" data-name="רגלי המרגל השמאלי" d="M180 360 C172 389 169 419 166 448 L195 448 C201 416 208 386 215 360 Z M217 360 C234 386 240 418 247 448 L276 448 C268 413 259 384 244 360 Z" fill="none" stroke="#111827"/>

  <circle data-id="right-head" data-name="ראש המרגל הימני" cx="642" cy="116" r="31" fill="none" stroke="#111827"/>
  <path data-id="right-body" data-name="בגד המרגל הימני" d="M607 156 L675 156 C696 216 688 303 660 363 L622 363 C594 303 588 216 607 156 Z" fill="none" stroke="#111827"/>
  <path data-id="right-arm" data-name="יד המרגל הימני" d="M609 178 C575 170 548 166 516 166 C508 171 507 181 514 188 C547 189 575 196 604 204 Z" fill="none" stroke="#111827"/>
  <path data-id="right-legs" data-name="רגלי המרגל הימני" d="M622 363 C606 390 597 420 591 449 L621 449 C630 418 638 389 650 363 Z M654 363 C671 389 681 419 690 449 L720 449 C712 414 701 385 682 363 Z" fill="none" stroke="#111827"/>

  <path data-id="grape-stem" data-name="גבעול האשכול" d="M420 167 C416 190 412 207 407 225 L415 226 C419 207 423 190 427 168 Z" fill="none" stroke="#111827"/>
  <path data-id="grape-leaf" data-name="עלה האשכול" d="M428 182 C457 164 486 172 499 199 C470 208 443 204 428 182 Z" fill="none" stroke="#111827"/>
  <ellipse data-id="grape-1" data-name="ענב 1" cx="386" cy="238" rx="33" ry="35" fill="none" stroke="#111827"/>
  <ellipse data-id="grape-2" data-name="ענב 2" cx="435" cy="237" rx="33" ry="35" fill="none" stroke="#111827"/>
  <ellipse data-id="grape-3" data-name="ענב 3" cx="409" cy="284" rx="34" ry="37" fill="none" stroke="#111827"/>
  <ellipse data-id="grape-4" data-name="ענב 4" cx="363" cy="304" rx="31" ry="34" fill="none" stroke="#111827"/>
  <ellipse data-id="grape-5" data-name="ענב 5" cx="457" cy="305" rx="31" ry="34" fill="none" stroke="#111827"/>
  <ellipse data-id="grape-6" data-name="ענב 6" cx="411" cy="363" rx="34" ry="39" fill="none" stroke="#111827"/>
</svg>
