<svg xmlns="http://www.w3.org/2000/svg" viewBox="0 0 860 520">
  <g stroke="#111827" fill="none" stroke-linecap="round" stroke-linejoin="round" stroke-width="4">
    <path data-id="robe" data-name="מעיל הכהן"
          d="M310 90
             C345 70, 515 70, 550 90
             C585 110, 620 150, 640 195
             C654 226, 650 250, 628 260
             L585 240
             L585 410
             C585 450, 555 480, 515 480
             L345 480
             C305 480, 275 450, 275 410
             L275 240
             L232 260
             C210 250, 206 226, 220 195
             C240 150, 275 110, 310 90
             Z"/>

    <path data-id="neck" data-name="פתח הצוואר"
          d="M380 110
             C395 95, 465 95, 480 110
             C492 125, 482 150, 455 155
             C430 160, 410 160, 405 155
             C378 150, 368 125, 380 110
             Z"/>

    <path data-id="collar" data-name="שפת הצוואר"
          d="M372 112
             C392 86, 468 86, 488 112
             C505 134, 490 172, 455 178
             C430 183, 410 183, 405 178
             C370 172, 355 134, 372 112
             Z"/>

    <path data-id="hem" data-name="שפת המעיל"
          d="M300 420
             C345 440, 515 440, 560 420
             L560 468
             C515 490, 345 490, 300 468
             Z"/>

    <path data-id="pom-01" data-name="רימון 1"
          d="M335 430
             C320 438, 318 456, 335 466
             C352 476, 372 470, 376 454
             C380 438, 350 422, 335 430
             Z"/>
    <circle data-id="bell-01" data-name="פעמון 1" cx="390" cy="452" r="16"/>

    <path data-id="pom-02" data-name="רימון 2"
          d="M415 430
             C400 438, 398 456, 415 466
             C432 476, 452 470, 456 454
             C460 438, 430 422, 415 430
             Z"/>
    <circle data-id="bell-02" data-name="פעמון 2" cx="470" cy="452" r="16"/>

    <path data-id="pom-03" data-name="רימון 3"
          d="M495 430
             C480 438, 478 456, 495 466
             C512 476, 532 470, 536 454
             C540 438, 510 422, 495 430
             Z"/>
    <circle data-id="bell-03l" data-name="פעמון 3 שמאל" cx="545" cy="452" r="16"/>
    <circle data-id="bell-03r" data-name="פעמון 3 ימין" cx="585" cy="452" r="16"/>

    <path data-id="pom-04" data-name="רימון 4"
          d="M625 430
             C610 438, 608 456, 625 466
             C642 476, 662 470, 666 454
             C670 438, 640 422, 625 430
             Z"/>
    <circle data-id="bell-04" data-name="פעמון 4" cx="680" cy="452" r="16"/>

    <path data-id="fold-left" data-name="קפל שמאל"
          d="M340 160
             C320 230, 320 310, 345 380
             C350 395, 340 410, 325 402
             C290 382, 290 210, 325 158
             C332 147, 345 150, 340 160
             Z"/>
    <path data-id="fold-right" data-name="קפל ימין"
          d="M520 160
             C540 230, 540 310, 515 380
             C510 395, 520 410, 535 402
             C570 382, 570 210, 535 158
             C528 147, 515 150, 520 160
             Z"/>
  </g>
</svg>
