<?xml version="1.0" encoding="UTF-8"?>
<svg xmlns="http://www.w3.org/2000/svg" viewBox="0 0 860 520" fill="none" stroke="#111827" stroke-width="3.2" stroke-linejoin="round" stroke-linecap="round">
  <g>
    <path data-id="bg_outline" data-name="מתאר המעיל" d="M220 90 Q430 30 640 90 L690 410 Q430 500 170 410 Z" />
    <path data-id="neck_ring" data-name="פתח הצווארון" d="M380 110 Q430 85 480 110 Q510 130 480 150 Q430 175 380 150 Q350 130 380 110 Z" />
    <path data-id="left_shoulder" data-name="כתף שמאל" d="M240 95 Q330 55 400 95 L360 160 Q300 150 240 130 Z" />
    <path data-id="right_shoulder" data-name="כתף ימין" d="M460 95 Q530 55 620 95 L620 130 Q560 150 500 160 Z" />
    <path data-id="front_panel" data-name="חזית מרכז" d="M360 160 Q430 140 500 160 L540 405 Q430 455 320 405 Z" />
    <path data-id="left_panel" data-name="צד שמאל" d="M170 410 L240 130 Q300 150 360 160 L320 405 Q250 430 170 410 Z" />
    <path data-id="right_panel" data-name="צד ימין" d="M500 160 Q560 150 620 130 L690 410 Q610 430 540 405 Z" />
    <path data-id="hem_band" data-name="שפת המעיל" d="M170 410 Q430 500 690 410 L675 445 Q430 520 185 445 Z" />
    <path data-id="bell1" data-name="פעמון 1" d="M250 438 Q260 420 280 420 Q300 420 310 438 Q295 452 280 462 Q265 452 250 438 Z" />
    <path data-id="pom1" data-name="רימון 1" d="M320 438 Q340 414 360 438 Q365 458 340 468 Q315 458 320 438 Z" />
    <path data-id="bell2" data-name="פעמון 2" d="M400 440 Q410 422 430 422 Q450 422 460 440 Q445 454 430 464 Q415 454 400 440 Z" />
    <path data-id="pom2" data-name="רימון 2" d="M470 438 Q490 414 510 438 Q515 458 490 468 Q465 458 470 438 Z" />
    <path data-id="bell3" data-name="פעמון 3" d="M550 438 Q560 420 580 420 Q600 420 610 438 Q595 452 580 462 Q565 452 550 438 Z" />
    <path data-id="side_seam_l" data-name="תפר שמאל" d="M240 130 L185 445" />
    <path data-id="side_seam_r" data-name="תפר ימין" d="M620 130 L675 445" />
  </g>
</svg>
