<svg xmlns="http://www.w3.org/2000/svg" viewBox="0 0 860 520">
  <g stroke="#111827" fill="none" stroke-linecap="round" stroke-linejoin="round" stroke-width="2.8">
    <!-- decorative outline + seams -->
    <path d="M310 90
             C345 70, 515 70, 550 90
             C585 110, 620 150, 640 195
             C654 226, 650 250, 628 260
             L585 240
             L585 410
             C585 450, 555 480, 515 480
             L345 480
             C305 480, 275 450, 275 410
             L275 240
             L232 260
             C210 250, 206 226, 220 195
             C240 150, 275 110, 310 90
             Z"/>
    <path d="M430 90 L430 480"/>
    <path d="M330 135 C315 220, 315 330, 335 415"/>
    <path d="M530 135 C545 220, 545 330, 525 415"/>
    <path d="M300 444 C345 462, 515 462, 560 444"/>
    <path d="M505 430 L520 466"/>
    <path d="M545 436 L585 468"/>
  </g>

  <g stroke="#111827" fill="none" stroke-linecap="round" stroke-linejoin="round" stroke-width="2.8">
    <!-- robe split -->
    <path data-id="robe-left" data-name="מעיל שמאל"
          d="M310 90
             C280 120, 250 170, 232 260
             L275 240
             L275 410
             C275 450, 305 480, 345 480
             L430 480
             L430 90
             C395 80, 345 80, 310 90
             Z"/>
    <path data-id="robe-center" data-name="מעיל אמצע"
          d="M430 90
             C470 80, 510 80, 550 90
             L550 480
             L430 480
             Z"/>
    <path data-id="robe-right" data-name="מעיל ימין"
          d="M550 90
             C585 110, 620 150, 640 195
             C654 226, 650 250, 628 260
             L585 240
             L585 410
             C585 450, 555 480, 515 480
             L550 480
             Z"/>

    <!-- neck + collar split -->
    <path data-id="neck" data-name="פתח הצוואר"
          d="M380 110
             C395 95, 465 95, 480 110
             C492 125, 482 150, 455 155
             C430 160, 410 160, 405 155
             C378 150, 368 125, 380 110
             Z"/>
    <path data-id="collar-outer" data-name="שפה חיצונית"
          d="M370 112
             C392 82, 468 82, 490 112
             C510 138, 492 182, 455 188
             C430 192, 410 192, 405 188
             C368 182, 350 138, 370 112
             Z"/>
    <path data-id="collar-inner" data-name="שפה פנימית"
          d="M382 116
             C398 94, 462 94, 478 116
             C492 136, 480 168, 455 172
             C430 176, 410 176, 405 172
             C380 168, 368 136, 382 116
             Z"/>

    <!-- hem split -->
    <path data-id="hem-left" data-name="שפה שמאל"
          d="M300 420
             C330 434, 380 442, 430 444
             L430 488
             C380 488, 330 480, 300 468
             Z"/>
    <path data-id="hem-mid" data-name="שפה אמצע"
          d="M430 444
             C475 442, 515 436, 560 420
             L560 468
             C515 484, 475 488, 430 488
             Z"/>
    <path data-id="hem-trim-mid" data-name="פס תפר אמצע"
          d="M430 456
             C475 454, 515 450, 552 438
             L552 452
             C515 465, 475 470, 430 472
             Z"/>

    <!-- pomegranates (each split to 2) -->
    <path data-id="pom01-a" data-name="רימון 1 אור"
          d="M335 430
             C320 438, 318 456, 335 466
             L350 448 Z"/>
    <path data-id="pom01-b" data-name="רימון 1 צל"
          d="M350 448
             L335 466
             C352 476, 372 470, 376 454
             C380 438, 362 426, 350 448
             Z"/>

    <path data-id="pom02-a" data-name="רימון 2 אור"
          d="M415 430
             C400 438, 398 456, 415 466
             L430 448 Z"/>
    <path data-id="pom02-b" data-name="רימון 2 צל"
          d="M430 448
             L415 466
             C432 476, 452 470, 456 454
             C460 438, 442 426, 430 448
             Z"/>

    <!-- center object (used for inspiration) -->
    <path data-id="pom03-a" data-name="רימון 3 אור"
          d="M495 430
             C480 438, 478 456, 495 466
             L510 448 Z"/>
    <path data-id="pom03-b" data-name="רימון 3 צל"
          d="M510 448
             L495 466
             C512 476, 532 470, 536 454
             C540 438, 522 426, 510 448
             Z"/>

    <path data-id="pom04-a" data-name="רימון 4 אור"
          d="M625 430
             C610 438, 608 456, 625 466
             L640 448 Z"/>
    <path data-id="pom04-b" data-name="רימון 4 צל"
          d="M640 448
             L625 466
             C642 476, 662 470, 666 454
             C670 438, 652 426, 640 448
             Z"/>

    <!-- bells (each split to 2) -->
    <path data-id="bell01-a" data-name="פעמון 1 אור" d="M390 436 a16 16 0 0 1 0 32 Z"/>
    <path data-id="bell01-b" data-name="פעמון 1 צל" d="M390 468 a16 16 0 0 1 0 -32 Z"/>

    <path data-id="bell02-a" data-name="פעמון 2 אור" d="M470 436 a16 16 0 0 1 0 32 Z"/>
    <path data-id="bell02-b" data-name="פעמון 2 צל" d="M470 468 a16 16 0 0 1 0 -32 Z"/>

    <path data-id="bell03l-a" data-name="פעמון 3 שמאל אור" d="M545 436 a16 16 0 0 1 0 32 Z"/>
    <path data-id="bell03l-b" data-name="פעמון 3 שמאל צל" d="M545 468 a16 16 0 0 1 0 -32 Z"/>

    <path data-id="bell03r-a" data-name="פעמון 3 ימין אור" d="M585 436 a16 16 0 0 1 0 32 Z"/>
    <path data-id="bell03r-b" data-name="פעמון 3 ימין צל" d="M585 468 a16 16 0 0 1 0 -32 Z"/>

    <path data-id="bell04-a" data-name="פעמון 4 אור" d="M680 436 a16 16 0 0 1 0 32 Z"/>
    <path data-id="bell04-b" data-name="פעמון 4 צל" d="M680 468 a16 16 0 0 1 0 -32 Z"/>

    <!-- folds split -->
    <path data-id="fold-left-a" data-name="קפל שמאל עליון"
          d="M340 160
             C322 230, 322 280, 336 320
             C342 338, 330 346, 318 336
             C295 317, 295 210, 318 158
             C326 144, 346 146, 340 160
             Z"/>
    <path data-id="fold-left-b" data-name="קפל שמאל תחתון"
          d="M336 320
             C348 352, 350 380, 345 398
             C340 410, 325 404, 315 396
             C300 382, 300 350, 306 330
             C312 310, 326 308, 336 320
             Z"/>

    <path data-id="fold-right-a" data-name="קפל ימין עליון"
          d="M520 160
             C538 230, 538 280, 524 320
             C518 338, 530 346, 542 336
             C565 317, 565 210, 542 158
             C534 144, 514 146, 520 160
             Z"/>
    <path data-id="fold-right-b" data-name="קפל ימין תחתון"
          d="M524 320
             C512 352, 510 380, 515 398
             C520 410, 535 404, 545 396
             C560 382, 560 350, 554 330
             C548 310, 534 308, 524 320
             Z"/>
  </g>
</svg>
