<svg xmlns="http://www.w3.org/2000/svg" viewBox="0 0 860 520">
  <g stroke="#111827" fill="none" stroke-linecap="round" stroke-linejoin="round" stroke-width="4">
    <!-- Base (3 regions) -->
    <rect data-id="base_bottom" data-name="בסיס תחתון" x="250" y="410" width="360" height="70" rx="22" ry="22"/>
    <rect data-id="base_mid" data-name="בסיס אמצעי" x="290" y="360" width="280" height="55" rx="20" ry="20"/>
    <rect data-id="base_top" data-name="בסיס עליון" x="320" y="320" width="220" height="48" rx="18" ry="18"/>

    <!-- Central stem -->
    <path data-id="stem" data-name="עמוד מרכזי" d="M430 320 L430 145"/>

    <!-- Three left branches in one region -->
    <path data-id="branches_left" data-name="קנים שמאל"
          d="M430 245
             Q320 250 120 95
             M430 245
             Q330 235 220 82
             M430 245
             Q350 220 320 70"/>

    <!-- Three right branches in one region -->
    <path data-id="branches_right" data-name="קנים ימין"
          d="M430 245
             Q540 250 740 95
             M430 245
             Q530 235 640 82
             M430 245
             Q510 220 540 70"/>

    <!-- Center top ornament (single region) -->
    <path data-id="top_ornament" data-name="קישוט עליון"
          d="M430 145
             C410 128 398 108 430 96
             C462 108 450 128 430 145
             M392 110
             Q430 82 468 110
             Q430 138 392 110 Z"/>

    <!-- Cups (7 regions) -->
    <path data-id="cup_1" data-name="כוס שמאל 1" d="M118 105 Q142 88 168 105 Q160 140 143 158 Q126 140 118 105 Z"/>
    <path data-id="cup_2" data-name="כוס שמאל 2" d="M218 92 Q242 75 268 92 Q260 127 243 145 Q226 127 218 92 Z"/>
    <path data-id="cup_3" data-name="כוס שמאל 3" d="M318 80 Q342 63 368 80 Q360 115 343 133 Q326 115 318 80 Z"/>
    <path data-id="cup_4" data-name="כוס מרכז 4" d="M408 74 Q419 60 430 60 Q441 60 452 74 Q447 114 430 132 Q413 114 408 74 Z"/>
    <path data-id="cup_5" data-name="כוס ימין 5" d="M492 80 Q516 63 542 80 Q534 115 517 133 Q500 115 492 80 Z"/>
    <path data-id="cup_6" data-name="כוס ימין 6" d="M592 92 Q616 75 642 92 Q634 127 617 145 Q600 127 592 92 Z"/>
    <path data-id="cup_7" data-name="כוס ימין 7" d="M692 105 Q716 88 742 105 Q734 140 717 158 Q700 140 692 105 Z"/>

    <!-- Flames (7 regions) -->
    <path data-id="flame_1" data-name="להבה שמאל 1" d="M143 92 C155 78 155 58 143 44 C131 58 131 78 143 92 Z"/>
    <path data-id="flame_2" data-name="להבה שמאל 2" d="M243 79 C255 65 255 45 243 31 C231 45 231 65 243 79 Z"/>
    <path data-id="flame_3" data-name="להבה שמאל 3" d="M343 67 C355 53 355 33 343 19 C331 33 331 53 343 67 Z"/>
    <path data-id="flame_4" data-name="להבה מרכז 4" d="M430 56 C442 42 442 22 430 8 C418 22 418 42 430 56 Z"/>
    <path data-id="flame_5" data-name="להבה ימין 5" d="M517 67 C529 53 529 33 517 19 C505 33 505 53 517 67 Z"/>
    <path data-id="flame_6" data-name="להבה ימין 6" d="M617 79 C629 65 629 45 617 31 C605 45 605 65 617 79 Z"/>
    <path data-id="flame_7" data-name="להבה ימין 7" d="M717 92 C729 78 729 58 717 44 C705 58 705 78 717 92 Z"/>
  </g>
</svg>
