<svg xmlns="http://www.w3.org/2000/svg" viewBox="0 0 860 520" fill="none" stroke="#111827" stroke-width="5" stroke-linecap="round" stroke-linejoin="round">
<path data-id="water-left" data-name="מים משמאל" d="M35 420 C115 398 185 442 270 418 C340 398 395 420 430 432" fill="none"/>
<path data-id="water-right" data-name="מים מימין" d="M430 432 C515 402 600 448 690 420 C750 402 800 414 830 430" fill="none"/>
<path data-id="lily-pad" data-name="עלה נופר" d="M245 405 C275 360 355 342 430 350 C505 340 585 365 610 410 C560 454 300 458 245 405 Z" fill="none"/>
<ellipse data-id="frog-body" data-name="גוף הצפרדע" cx="430" cy="305" rx="116" ry="105" fill="none"/>
<circle data-id="frog-head" data-name="ראש הצפרדע" cx="430" cy="215" r="92" fill="none"/>
<circle data-id="eye-left" data-name="עין שמאל" cx="390" cy="160" r="28" fill="none"/>
<circle data-id="eye-right" data-name="עין ימין" cx="470" cy="160" r="28" fill="none"/>
<circle data-id="pupil-left" data-name="אישון שמאל" cx="394" cy="164" r="9" fill="none"/>
<circle data-id="pupil-right" data-name="אישון ימין" cx="466" cy="164" r="9" fill="none"/>
<path data-id="mouth" data-name="פה הצפרדע" d="M382 236 Q430 272 478 236 Q430 290 382 236 Z" fill="none"/>
<path data-id="front-leg-left" data-name="רגל קדמית שמאל" d="M352 292 C315 305 300 340 314 365 C331 383 358 370 372 342 L388 315 Z" fill="none"/>
<path data-id="front-leg-right" data-name="רגל קדמית ימין" d="M508 292 C545 305 560 340 546 365 C529 383 502 370 488 342 L472 315 Z" fill="none"/>
<path data-id="back-leg-left" data-name="רגל אחורית שמאל" d="M346 350 C294 350 260 378 266 412 C294 430 345 417 380 390 Z" fill="none"/>
<path data-id="back-leg-right" data-name="רגל אחורית ימין" d="M514 350 C566 350 600 378 594 412 C566 430 515 417 480 390 Z" fill="none"/>
<path data-id="reed-left" data-name="קנה משמאל" d="M112 410 C105 330 110 245 126 165 C142 245 145 330 138 410 Z" fill="none"/>
<path data-id="reed-right" data-name="קנה מימין" d="M720 410 C714 320 720 230 738 145 C754 235 755 325 746 410 Z" fill="none"/>
</svg>